<?xml version="1.0" encoding="utf-8"?>
<!-- Generator: Adobe Illustrator 21.0.0, SVG Export Plug-In . SVG Version: 6.00 Build 0)  -->
<svg version="1.1" id="lifehacker" xmlns="http://www.w3.org/2000/svg" xmlns:xlink="http://www.w3.org/1999/xlink" x="0px" y="0px"
	 viewBox="0 0 596.4 148.5" style="enable-background:new 0 0 596.4 148.5;" xml:space="preserve">
<style type="text/css">
	.st0{fill:#C3CDD4;}
</style>
<path class="st0" d="M22.9,146.8H0V1.5L22.9,3V146.8z"/>
<path class="st0" d="M48.9,11.6c7.2,0,13.1,5.9,13.1,13.1s-5.9,13.1-13.1,13.1c-7.2,0-13.1-5.9-13.1-13.1
	C35.8,17.5,41.7,11.6,48.9,11.6z M60.3,146.8H37.4V43.2l22.9,1.3V146.8z"/>
<path class="st0" d="M114.9,64v22.9H97.8v59.9H74.9V33c0-17.3,14.4-33,31.4-33c5.7,0,10.3,1.7,11.4,2.4l-0.9,22h-10.5
	c-4.6,0-8.5,3.9-8.5,8.7v31L114.9,64L114.9,64z"/>
<path class="st0" d="M124.2,73.2c0-17.3,14-31.5,31.5-31.5c17.3,0,31.4,14.2,31.4,31.5v22.1c0,6.5-5.2,11.4-11.4,11.4H147v10
	c0,4.8,3.9,8.7,8.7,8.7h22l0.7,19.4l-20.7,3.1c-19.9,3.3-33.6-13.8-33.6-31.2L124.2,73.2L124.2,73.2z M147,83.9h17.2V73.2
	c0-4.8-3.9-8.7-8.5-8.7c-4.8,0-8.7,3.9-8.7,8.7V83.9z"/>
<path class="st0" d="M206.6,146.8V2.4h14.8v43.9c4.1-1.3,10.5-1.8,14.9-1.8c15.7,0,27.9,14.2,27.9,30.3v72.1h-14.4V74.7
	c0-7.9-6.5-14.2-14.4-14.2h-14v86.3H206.6z"/>
<path class="st0" d="M318.2,72.3c0-8.3-3.9-14.9-14.4-13.8h0.2c-5.9,0.2-13.5,0.9-19.7,1.3c-0.2-5.3-0.4-7.4-0.6-11.4
	c5-1.8,12.2-3.7,18.3-3.9c18.4-0.4,30.6,14.6,30.6,30.6V119c0,15.9-12.7,29-28.6,29s-29-13.1-29-29v-9c0-15.9,10.9-27.9,29-27.9
	c6.8,0,10.3,0.7,14.2,1.8V72.3z M318.2,119V94.1H304c-7.9,0-14.2,6.3-14.2,14.2V119c0,7.9,6.3,14.4,14.2,14.4
	C311.9,133.4,318.2,126.9,318.2,119z"/>
<path class="st0" d="M373.9,44.5c15.9,0,29,12.9,29,29v1.8c-5.7,0.2-10.3,0.2-14.6,0.4v-2.2c0-7.7-6.5-14.2-14.4-14.2
	c-7.7,0-14,6.5-14,14.2v46.1c0,8.1,6.3,14.2,14,14.2s14.2-5.9,14.4-13.7c7.2,0.6,14,0.9,14.6,0.9c-0.7,15.3-13.7,27.5-29,27.5
	c-15.9,0-28.8-12.9-28.8-29V73.4C345.1,57.4,358,44.5,373.9,44.5z"/>
<path class="st0" d="M429.3,2.8v144.1h-14.8V2.8H429.3z M461,146.8L433,98c-2.8-4.8-2.8-5.3,0.6-11.1l24.7-41H475l-27.9,47.2
	l30.1,53.7H461z"/>
<path class="st0" d="M480.3,73.6c0-16,12.9-29.1,29-29.1c15.9,0,28.8,13.1,28.8,29.1v22.7c0,4.2-3.3,7.4-7.4,7.4h-35.6v15.7
	c0,7.9,6.3,14.4,14.2,14.4h18.6c0.2,4.8,0.4,8.1,0.7,11.4l-17.7,2.8c-18.1,3.1-30.6-12.5-30.6-28.6V73.6L480.3,73.6z M495.1,89.1
	h28.4V73.6c0-7.9-6.5-14.4-14.2-14.4c-7.9,0-14.2,6.5-14.2,14.4V89.1L495.1,89.1z"/>
<path class="st0" d="M565.8,146.8H551V74.9c0-16,12.5-31,31-30.6c6.3,0.2,10.1,1.7,14.4,3.7c-0.2,4.4-0.4,8.1-0.6,11.4l-16-0.4
	c-7.7,0-14,8.3-14,15.9L565.8,146.8L565.8,146.8z"/>
</svg>
