<?xml version="1.0" encoding="utf-8"?>
<!-- Generator: Adobe Illustrator 21.0.0, SVG Export Plug-In . SVG Version: 6.00 Build 0)  -->
<svg version="1.1" id="net_magazine" xmlns="http://www.w3.org/2000/svg" xmlns:xlink="http://www.w3.org/1999/xlink" x="0px"
	 y="0px" viewBox="0 0 640 640" style="enable-background:new 0 0 640 640;" xml:space="preserve">
<style type="text/css">
	.st0{fill:#C3CDD4;}
</style>
<path class="st0" d="M331.9,256.1c-21.7,0-31,17.5-33.7,37.3H362C360.6,274.7,353.9,256.1,331.9,256.1z"/>
<path class="st0" d="M635.6,280.6L578,338.1l0,0l1.7-11.6l1.2-11.7l0.7-11.9l0.2-12l-0.2-12l-0.7-11.9l-1.2-11.7l-1.7-11.6
	l-2.1-11.4l-2.5-11.3l-3-11.1L567,199l-3.8-10.7l-4.2-10.5l-4.6-10.3l-5-10.1l-5.4-9.9l-5.7-9.7l-6.1-9.4l-6.4-9.2l-6.8-8.9
	l-7.1-8.6l-7.4-8.3l-7.7-8l-8-7.7l-8.3-7.4l-8.6-7.1l-8.9-6.8l-9.2-6.4l-9.4-6.1l-9.7-5.7l-9.9-5.4l-10.1-5l-10.3-4.6L393.9,19
	l-10.7-3.8l-10.9-3.4l-11.1-3l-11.3-2.5l-11.4-2.1l-11.6-1.7L314.8,1l-11.9-0.7l-12-0.2l-12,0.2L267.1,1l-11.7,1.2l-11.6,1.7
	L232.4,6L221,8.5l-11.1,3L199,14.8l-10.7,3.8l-10.5,4.2l-10.3,4.6l-10.1,5l-9.9,5.4l-9.7,5.7l-9.4,6.1l-9.2,6.4l-8.9,6.8l-8.6,7.1
	l-8.3,7.4l-8,7.7l-7.7,8l-7.4,8.3l-7.1,8.6l-6.8,8.9L50,128l-6.1,9.4l-5.7,9.7l-5.4,9.9l-5,10.1l-4.6,10.3L19,187.9l-3.8,10.7
	l-3.4,10.9l-3,11.1l-2.5,11.3l-2.1,11.4l-1.7,11.6l-1.2,11.7l-0.7,11.9l-0.2,12l0.2,12l0.7,11.9l1.2,11.7l1.7,11.6l2.1,11.4
	l2.5,11.3l3,11.1l3.4,10.9l3.8,10.7l4.2,10.5l4.6,10.3l5,10.1l5.4,9.9l5.7,9.7L50,453l6.4,9.2l6.8,8.9l7.1,8.6l7.4,8.3l7.7,8l8,7.7
	l8.3,7.4l8.6,7.1l8.9,6.8l9.2,6.4l9.4,6.1l9.7,5.7l9.9,5.4l10.1,5l10.3,4.6l10.5,4.2L199,567l10.9,3.4l11.1,3l11.3,2.5l11.4,2.1
	l11.6,1.7l11.7,1.2l11.9,0.7l12,0.2l12-0.2l11.9-0.7l11.7-1.2l11.6-1.7l0,0l-59,59l4.3,4.3l356.5-356.5L635.6,280.6z M245.1,388
	h-81.8v-32.1h22v-76.7c0-13.1-4.3-20.5-17.7-20.5c-14.4,0-28.7,8.8-40.1,18.3v78.9h22V388H67.7v-32.1h22v-93.5h-22v-32.1h58.8V250
	c14-12.4,31.7-23.7,53.4-23.7c26.4,0,43.1,16.4,43.1,48.9v80.7h22V388H245.1z M396,322.2h-97.5c3.7,24.8,17.4,38.4,43.4,38.4
	c19.7,0,35.1-8,46.4-14.6v31.8c-11.4,6.9-28.7,14.2-52.1,14.2c-50.7,0-75.8-35.1-75.8-82.9c0-47.9,25-82.9,70.8-82.9
	c45.4,0,66.1,35.1,66.1,78.5C397.3,310.2,397,316.4,396,322.2z M512.8,386.5c-8.7,2.6-20.4,5.5-34.4,5.5
	c-35.7,0-45.1-18.6-45.1-47.5v-81.8h-25v-32.5h25V190H471v40.2h39.4v32.5H471v79.6c0,15,8,17.9,19.4,17.9c8.7,0,16.7-1.8,22.4-4
	V386.5z"/>
</svg>
